<svg width="296" height="75" viewBox="0 0 296 75" fill="none" xmlns="http://www.w3.org/2000/svg">
<g clip-path="url(#clip0_300_135)">
<path d="M267.617 10.7767C267.617 10.4231 267.334 10.1402 266.98 10.1402C266.625 10.1402 266.342 10.4231 266.342 10.7767C266.342 11.1304 266.632 11.4133 266.98 11.4133C267.328 11.4133 267.617 11.124 267.617 10.7767ZM248.047 4.24383C248.382 4.42387 248.737 4.61677 249.065 4.80324H249.052C249.123 4.84825 249.207 4.88683 249.284 4.93184C249.555 5.0733 249.838 5.22119 250.128 5.37551C251.081 5.87706 252.08 6.41718 252.988 6.92515C253.066 6.96373 253.136 7.00231 253.188 7.02803C256.447 8.78344 261.15 11.0532 263.746 12.3907C263.939 12.4936 264.126 12.5836 264.306 12.6672C264.429 12.7122 264.648 12.7958 264.912 12.8922C265.311 13.0337 265.801 13.2009 266.136 13.2845C266.31 13.323 266.973 13.4709 267.695 13.4709C268.275 13.4709 268.887 13.3745 269.312 13.1044C269.685 12.8665 270.072 12.5579 270.355 12.1721C270.497 11.9856 270.613 11.7863 270.69 11.5612C270.761 11.3169 270.806 11.0339 270.826 10.7253C270.813 10.3974 270.735 10.0309 270.555 9.61291C270.4 9.25926 270.085 8.95062 269.66 8.70627C267.869 7.77392 264.455 7.87037 262.393 7.61317C259.501 7.25309 247.667 1.74897 244.775 0.398661C241.883 -0.951648 241.071 1.56893 241.071 1.56893L240.974 1.90972C240.974 1.90972 241.522 2.11548 242.875 2.11548C243.686 2.11548 245.793 3.08642 248.047 4.25026M267.701 9.20139C268.558 9.20139 269.247 9.89583 269.247 10.751C269.247 11.6062 268.552 12.2942 267.701 12.2942C266.851 12.2942 266.155 11.6062 266.155 10.751C266.155 9.89583 266.851 9.20139 267.701 9.20139ZM289.494 46.3927C286.782 42.8755 278.472 41.9753 269.35 39.6283C260.222 37.2814 262.213 30.9735 262.754 28.3565C263.295 25.7395 267.721 20.3318 268.99 18.795C270.259 17.2647 271.792 14.3776 272.423 13.0273C273.054 11.677 273.325 7.43956 270.342 6.62294C268.178 6.03138 266.464 6.75797 265.691 7.19522C266.001 7.21451 266.361 7.24023 266.754 7.29167C267.714 7.40741 268.835 7.62603 269.73 8.08256C270.323 8.38477 270.838 8.7963 271.096 9.38786C271.322 9.89583 271.418 10.3717 271.418 10.8089C271.418 11.4905 271.173 12.0692 270.832 12.5257C270.491 12.9887 270.046 13.3359 269.627 13.5995C269.209 13.8632 268.719 13.9853 268.242 14.0303C267.985 14.9241 267.121 15.8372 266.374 16.6602C265.614 17.4961 264.809 18.2292 264.487 18.6085C264.255 18.8786 263.044 20.2418 261.652 21.8943C260.261 23.5468 258.683 25.4823 257.742 26.8776C256.821 28.2407 256.151 30.2019 255.707 31.9187C255.262 33.642 255.03 35.1145 254.959 35.5388C254.889 35.9568 254.74 36.8506 254.612 37.635C254.579 37.8344 254.547 38.0273 254.521 38.2009C254.289 41.4931 254.541 44.4959 254.541 44.4959C255.623 54.5075 263.759 57.6646 265.743 58.7449C266.303 59.0471 267.225 59.5615 268.32 60.1723C268.32 60.1723 268.416 60.2238 268.571 60.3524C269.692 60.9697 271.412 61.9149 273.112 62.8601C273.112 62.8601 273.112 62.8537 273.112 62.8472C273.338 62.9758 273.563 63.1044 273.789 63.2266C273.789 63.2266 273.789 63.233 273.789 63.2395C274.8 63.8053 275.773 64.3519 276.572 64.8084V64.802C276.733 64.892 276.887 64.982 277.029 65.0592C279.741 66.5895 281.274 67.4961 287.239 68.2163C293.204 68.9365 296 66.3194 296 66.3194C295.098 55.8578 292.206 49.9036 289.494 46.3927ZM257.253 26.5496C258.225 25.1157 259.804 23.1739 261.201 21.5149C262.599 19.856 263.817 18.4864 264.042 18.2227C264.416 17.7919 265.195 17.0782 265.943 16.2616C266.613 15.535 267.347 14.7248 267.617 14.0561C266.851 14.0432 266.2 13.9017 266.001 13.8567C265.646 13.7731 265.189 13.6188 264.796 13.4838C263.997 13.5095 262.348 13.5674 260.293 13.606C260.242 13.606 260.177 13.606 260.106 13.606C259.726 13.6124 259.327 13.6188 258.921 13.6317L258.908 13.6188C258.393 13.6124 257.774 13.5995 257.098 13.5867C254.631 13.5738 251.165 13.5352 248.975 13.4259C247.249 13.3873 246.031 13.3616 246.038 13.3616C245.928 13.3616 245.812 13.3616 245.703 13.3616C245.587 13.3488 245.477 13.3359 245.368 13.3295C243.834 13.2587 241.96 12.9694 240.034 12.6736C239.944 12.6607 239.86 12.6479 239.776 12.6415C239.692 12.6415 239.621 12.6415 239.544 12.6543C239.531 12.6543 239.525 12.6543 239.512 12.6543C239.145 12.6543 238.881 12.7251 238.694 12.8279C238.282 13.0144 238.191 13.323 238.198 13.6896C238.217 14.802 238.906 14.6541 238.906 14.6541C238.906 14.6541 238.52 21.1806 239.261 24.9807C240.118 29.3596 241.026 32.3174 243.48 34.7672C243.48 34.7672 245.303 36.4198 246.617 36.9856C247.931 37.5514 250.573 38.7024 253.342 37.6672C253.703 37.5322 253.954 37.2171 254.128 36.8891C254.225 36.3104 254.315 35.7575 254.373 35.4488C254.444 35.0309 254.676 33.5262 255.133 31.7773C255.591 30.0283 256.261 28.0221 257.253 26.5561M275.251 73.0388C275.077 72.6723 275.032 72.6209 275.006 72.055C275.045 71.7207 275.109 71.3606 275.212 70.9491C275.438 70.3189 275.605 69.7081 275.734 69.1487C276.121 67.4576 276.314 66.5316 276.314 66.313V66.2873C276.378 65.9465 276.43 65.6636 276.468 65.4257C275.728 65.0013 274.813 64.4869 273.853 63.9532C273.911 64.6862 273.924 65.2714 273.924 65.2714H273.911C273.898 65.6636 273.885 66.3066 273.757 67.7083C273.711 68.0234 273.653 68.3449 273.583 68.6536C273.364 69.6181 273.003 70.7305 272.423 71.8364C271.959 72.4859 271.038 72.4087 270.645 72.383C270.793 71.7078 270.78 71.7528 271.16 70.769C271.695 69.4573 272.056 68.2034 272.288 67.2197C272.5 66.3002 272.616 65.67 272.674 65.2521C272.719 64.9756 272.855 64.1911 272.983 63.4645C271.766 62.7894 270.529 62.1013 269.498 61.5355C269.769 62.0242 270.027 62.6736 270.201 63.5159C270.265 64.4483 270.297 65.3292 270.085 66.9432C269.737 68.3706 269.08 70.0875 267.888 71.6049C266.452 72.608 260.815 72.1515 258.947 72.055C256.828 71.9457 255.552 72.9488 255.385 73.1353C254.818 73.7461 254.946 74.4534 254.946 74.4534H276.423C277.061 74.4534 275.522 73.6175 275.245 73.026" fill="#00853F"/>
<path d="M249.535 5.72274L242.166 12.3392C242.804 12.4357 243.396 12.5321 243.712 12.5772C244.124 12.635 245.213 12.6865 246.257 12.7315C247.307 12.7765 248.324 12.8022 248.666 12.8215C251.178 12.963 255.874 12.9951 258.361 13.008L254.116 8.24974C253.362 7.79964 252.389 7.26595 251.391 6.72582C250.766 6.39146 250.134 6.05067 249.529 5.72917M248.44 9.49717L245.864 11.7863C245.651 11.9792 245.316 11.9599 245.129 11.7413L245.084 11.6898C244.891 11.4776 244.91 11.1497 245.129 10.9568L247.706 8.6677C247.919 8.47479 248.254 8.49408 248.44 8.71271L248.485 8.76415C248.679 8.97634 248.659 9.30427 248.44 9.49717Z" fill="#8DC63F"/>
<path d="M239.628 12.0306C239.989 12.0306 240.672 12.1206 241.412 12.2299L248.981 5.43338C248.331 5.09259 247.738 4.78395 247.261 4.53961L238.745 12.1013C238.745 12.1013 238.694 12.1592 238.668 12.1914C239.016 12.0756 239.312 12.0756 239.46 12.0499C239.518 12.0435 239.57 12.037 239.634 12.037" fill="#8DC63F"/>
<path d="M0 51.2281H7.59486C11.8915 51.2281 13.4955 51.884 14.7517 52.9192C16.5747 54.4239 17.483 56.7065 17.483 59.0599C17.483 61.4133 16.5103 63.8825 15.0351 65.1363C13.4376 66.4802 11.8658 67.1425 8.25837 67.1425H5.6881V74.4084H0V51.2281ZM5.68165 61.9406H8.09732C9.22464 61.9406 11.8013 61.9406 11.8013 59.1564C11.8013 56.3722 9.16666 56.43 7.8783 56.43H5.68165V61.9406Z" fill="#00853F"/>
<path d="M34.7985 68.9558C33.9482 70.8976 32.7307 72.4023 31.2491 73.4053C29.8061 74.4406 28.0797 74.9743 26.2889 74.9743C21.2965 74.9743 17.0643 70.9362 17.0643 65.7665C17.0643 60.9118 20.8907 56.43 26.1987 56.43C31.5068 56.43 35.3912 60.6289 35.3912 65.9208C35.3912 66.6088 35.3267 66.8917 35.2623 67.2968H22.2113C22.5269 69.3609 24.2533 70.589 26.2889 70.589C27.8865 70.589 28.7368 69.8688 29.4583 68.9622H34.7921L34.7985 68.9558ZM30.1862 63.7924C29.9672 62.7572 28.9301 60.8153 26.2309 60.8153C23.5318 60.8153 22.4947 62.7572 22.2757 63.7924H30.1862Z" fill="#00853F"/>
<path d="M41.4593 51.2281H36.2479V74.4084H41.4593V51.2281Z" fill="#00853F"/>
<path d="M48.3907 55.1762H43.1793V51.2281H48.3907V55.1762ZM48.3907 74.4084H43.1793V57.0216H48.3907V74.4084Z" fill="#00853F"/>
<path d="M67.6903 67.7984C66.7498 71.7464 63.2648 74.9743 58.5558 74.9743C53.2864 74.9743 49.2346 70.8398 49.2346 65.67C49.2346 60.5003 53.222 56.43 58.427 56.43C63.0393 56.43 66.7755 59.4714 67.6516 63.7281H62.3822C61.8154 62.5386 60.7782 61.2847 58.6138 61.2847C56.1337 61.1625 54.4717 63.1944 54.4717 65.7022C54.4717 68.2099 56.1337 70.1196 58.6138 70.1196C60.7782 70.1196 61.8154 68.8657 62.3822 67.7984H67.6838H67.6903Z" fill="#00853F"/>
<path d="M87.3957 74.4084H82.1843V72.5309H82.1199C81.2438 74.222 79.0729 75.0064 77.0373 75.0064C71.5167 75.0064 68.2829 70.6854 68.2829 65.7022C68.2829 60.0051 72.3928 56.43 77.0373 56.43C79.891 56.43 81.495 57.8061 82.1199 58.8735H82.1843V57.028H87.3957V74.4149V74.4084ZM77.8232 70.1453C81.0892 70.1453 82.1843 67.3868 82.1843 65.6957C82.1843 63.5995 80.7413 61.2783 77.791 61.2783C74.8407 61.2783 73.4943 63.786 73.4943 65.76C73.4943 67.3868 74.686 70.1453 77.8232 70.1453Z" fill="#00853F"/>
<path d="M89.1543 57.0216H94.0178V58.867H94.0823C94.6169 58.0183 95.712 56.4236 98.8234 56.4236C100.485 56.4236 102.334 57.1116 103.281 57.9282C104.222 58.7449 105.291 60.1209 105.291 63.5352V74.402H100.08V64.9113C100.08 63.6896 100.08 61.3104 97.3482 61.3104C94.3657 61.3104 94.3657 63.876 94.3657 64.9434V74.402H89.1543V57.0152V57.0216Z" fill="#00853F"/>
<path d="M120.088 51.2217H114.155V74.402H120.088V51.2217Z" fill="#F7941D"/>
<path d="M121.718 57.0152H126.581V58.8606C127.174 58.0183 128.275 56.4172 131.38 56.4172C137.249 56.4172 137.848 61.1818 137.848 63.5288V74.402H132.636V64.9113C132.636 63.0015 132.231 61.3104 129.905 61.3104C127.335 61.3104 126.922 63.1559 126.922 64.9434V74.402H121.711V57.0152H121.718Z" fill="#F7941D"/>
<path d="M157.811 74.402H152.851V72.5244C152.348 73.2446 151.092 74.9678 147.575 74.9678C142.305 74.9678 138.853 70.8976 138.853 65.6636C138.853 59.7737 143.059 56.4236 147.485 56.4236C150.557 56.4236 152.033 57.9282 152.599 58.4941V51.2281H157.811V74.4084V74.402ZM144.064 65.6636C144.064 68.3256 145.977 70.1132 148.425 70.1132C149.681 70.1132 150.841 69.6116 151.659 68.795C152.477 67.9784 152.947 66.8531 152.883 65.5671C152.883 64.3133 152.38 63.2459 151.595 62.4936C150.809 61.7091 149.714 61.2719 148.49 61.2719C145.475 61.2719 144.064 63.6188 144.064 65.625V65.6571V65.6636Z" fill="#F7941D"/>
<path d="M175.667 74.402H170.804V72.5566C170.205 73.3989 169.11 75 165.973 75C160.072 75 159.479 70.2353 159.479 67.8884V57.0152H164.691V66.5059C164.691 68.4156 165.096 70.1067 167.454 70.1067C170.057 70.1067 170.469 68.2549 170.469 66.4738V57.0152H175.68V74.402H175.667Z" fill="#F7941D"/>
<path d="M185.272 61.902C185.24 61.5226 185.176 60.5839 183.642 60.5839C182.541 60.5839 182.167 61.2719 182.167 61.7413C182.167 62.5257 183.456 63.0594 184.834 63.4645C187.784 64.2811 190.922 65.1556 190.922 68.9172C190.922 72.6788 187.688 74.9936 183.829 74.9936C181.195 74.9936 177.207 73.804 176.737 69.2323H181.916C182.135 70.8333 183.675 70.8333 183.894 70.8333C184.776 70.8333 185.717 70.3318 185.717 69.483C185.717 68.2935 184.428 68.1392 181.104 66.8531C178.843 66.133 176.962 64.6605 176.962 62.3135C176.962 58.7127 180.099 56.4236 183.713 56.4236C186.007 56.4236 189.962 57.3302 190.4 61.9084H185.285L185.272 61.902Z" fill="#F7941D"/>
<path d="M193.621 60.9632H191.044V57.0152H193.621V51.2217H198.832V57.0152H201.338V60.9632H198.832V74.402H193.621V60.9632Z" fill="#F7941D"/>
<path d="M202.626 57.0152H207.522V58.957C208.025 58.0183 208.933 56.4172 211.948 56.4172V61.6512H211.761C209.094 61.6512 207.838 62.6222 207.838 65.0656V74.402H202.626V57.0152Z" fill="#F7941D"/>
<path d="M213.107 51.2217H218.319V55.1698H213.107V51.2217ZM213.107 57.0152H218.319V74.402H213.107V57.0152Z" fill="#F7941D"/>
<path d="M238.34 74.402H233.128V72.5244C232.188 74.2155 230.023 75 227.981 75C222.454 75 219.227 70.679 219.227 65.6957C219.227 59.9923 223.337 56.4236 227.981 56.4236C230.835 56.4236 232.439 57.7996 233.128 58.867V57.0216H238.34V74.4084V74.402ZM224.438 65.7858C224.438 67.3868 225.63 70.1389 228.767 70.1389C230.622 70.1389 231.75 69.2644 232.407 68.197C232.845 67.509 233.064 66.7567 233.128 65.9722C233.193 65.1878 233.032 64.4033 232.69 63.6831C232.123 62.4936 230.932 61.2719 228.735 61.2719C225.752 61.2719 224.438 63.7796 224.438 65.7536V65.7858Z" fill="#F7941D"/>
<path d="M245.155 51.2217H239.944V74.402H245.155V51.2217Z" fill="#F7941D"/>
</g>
<defs>
<clipPath id="clip0_300_135">
<rect width="296" height="75" fill="white"/>
</clipPath>
</defs>
</svg>
